# xmcd
#
# Track frame offsets: 
#        150
#        25350
#        41260
#        69092
#        80635
#        92972
#        139142
#        165337
#        177860
#        189545
#        208592
#        247260
#        261897
#        274445
#        286387
#        307107
#
# Disc length: 4486 seconds
#
# Revision: 0
# Processed by: cddbd v1.5.2PL0 Copyright (c) Steve Scherf et al.
# Submitted via: ExactAudioCopy v0.99pb5
#
DISCID=ed118410
DTITLE=B.B. King - King Of The Blues Vol 2 (1966 - 69)
DYEAR=1992
DGENRE=Blues
TTITLE0=Goin' Down Slow
TTITLE1=Tired Of Your Jive
TTITLE2=Sweet Sixteen Part One And Two
TTITLE3=Paying The Cost To Be The Boss
TTITLE4=I'm Gonna Do What They Do To Me
TTITLE5=Lucille
TTITLE6=Watch Yourself
TTITLE7=You Put It On Me
TTITLE8=Get Myself Somebody
TTITLE9=I Want You So Bad
TTITLE10=Why I Sing The Blues
TTITLE11=Get Off My Back Woman
TTITLE12=Please Accept My Love
TTITLE13=Fools Get Wise
TTITLE14=No Good
TTITLE15=So Excited
EXTD=
EXTT0=
EXTT1=
EXTT2=
EXTT3=
EXTT4=
EXTT5=
EXTT6=
EXTT7=
EXTT8=
EXTT9=
EXTT10=
EXTT11=
EXTT12=
EXTT13=
EXTT14=
EXTT15=
PLAYORDER=
